<svg width="100" height="100" viewBox="0 0 100 100" fill="none" xmlns="http://www.w3.org/2000/svg">
<rect width="100" height="100" fill="white"/>
<g clip-path="url(#clip0_4026_13838)">
<mask id="mask0_4026_13838" style="mask-type:luminance" maskUnits="userSpaceOnUse" x="27" y="12" width="45" height="45">
<path d="M71.928 12H27V56.7713H71.928V12Z" fill="white"/>
</mask>
<g mask="url(#mask0_4026_13838)">
<path d="M30.5101 16.2585C30.124 16.3197 29.2465 16.652 28.8955 16.8794C28.3953 17.1854 27.7898 17.8412 27.509 18.3572C26.9825 19.319 27.0001 18.567 27.0001 34.3594C27.0001 44.5728 27.0264 48.9451 27.0966 49.2687C27.2458 49.9682 27.6406 50.7377 28.1233 51.236C28.641 51.7782 29.0622 52.0492 29.8081 52.3204L30.3784 52.5303H49.464C67.918 52.5303 68.5673 52.5215 69.0323 52.3641C69.673 52.1454 70.5942 51.5335 70.9541 51.0875C71.3489 50.5978 71.7174 49.8369 71.8314 49.2687C71.9718 48.6128 71.9632 20.1498 71.8314 19.5027C71.542 18.1036 70.5417 16.9668 69.1289 16.4246L68.6375 16.241L49.6835 16.2323C39.2587 16.2235 30.6329 16.2323 30.5101 16.2585ZM68.3741 18.9868C68.7779 19.1704 69.0675 19.459 69.1991 19.8087C69.2693 19.9749 69.2956 22.7206 69.2956 28.4657V36.8778L66.075 33.6687C64.2939 31.911 62.7581 30.4244 62.653 30.372C62.416 30.2496 62.0123 30.2496 61.6877 30.3632C61.5561 30.4157 59.0903 32.8029 56.1593 35.7236L50.868 40.9877L48.3496 38.4779C46.1822 36.3356 45.7786 35.9684 45.4978 35.9158C44.7694 35.7847 44.9713 35.6011 37.5739 42.9639L30.6329 49.872L30.3346 49.6707C30.1766 49.5571 29.9572 49.356 29.8607 49.225L29.6764 48.98L29.6501 34.6218C29.6413 26.7256 29.6501 20.141 29.6764 19.9836C29.7466 19.6076 30.1152 19.1791 30.5539 18.9868C30.8874 18.8294 31.642 18.8206 49.464 18.8206C67.3211 18.8206 68.0406 18.8294 68.3741 18.9868ZM69.2956 44.634C69.2956 47.3099 69.2604 48.7964 69.1991 48.9626C69.0675 49.3124 68.7779 49.6008 68.3741 49.7846C68.0406 49.9419 67.365 49.9506 51.1752 49.9506H34.3272L39.7852 44.5117L45.2521 39.0638L47.6827 41.4774C49.0253 42.8151 50.2098 43.9432 50.3153 43.9958C50.5786 44.1268 51.184 44.1182 51.4648 43.9695C51.5964 43.8995 54.0534 41.4948 56.9229 38.6355L62.1438 33.4237L65.7154 36.9828L69.2956 40.5505V44.634Z" fill="#3D3D3D"/>
<path d="M37.5736 21.8812C35.3974 22.126 33.6424 23.5601 32.9141 25.685C32.721 26.2534 32.6772 26.5507 32.6684 27.259C32.6596 28.3258 32.7825 28.868 33.2563 29.8386C33.8881 31.1415 35.0376 32.1209 36.5645 32.6455C37.3455 32.9166 38.9776 32.9253 39.7849 32.663C41.5399 32.0859 42.9088 30.7305 43.4616 29.0254C43.7512 28.1247 43.7863 26.8742 43.5582 25.991C42.8386 23.3328 40.2939 21.5839 37.5736 21.8812ZM39.4515 24.7668C41.0924 25.5976 41.5838 27.67 40.4869 29.1041C39.4339 30.4944 37.3806 30.6343 36.1521 29.4101C35.0552 28.3083 34.9938 26.5944 36.0117 25.4664C36.8892 24.4958 38.337 24.1985 39.4515 24.7668Z" fill="#3D3D3D"/>
</g>
<path d="M79.924 20.8773L41.7402 58.9278" stroke="#45D7C6" stroke-width="3"/>
</g>
<path d="M34.8328 69.384V75H33.4648V69.384H34.8328ZM42.1841 69.384V75H40.8161V71.632L39.5601 75H38.4561L37.1921 71.624V75H35.8241V69.384H37.4401L39.0161 73.272L40.5761 69.384H42.1841ZM46.6639 74.008H44.5679L44.2319 75H42.7999L44.8319 69.384H46.4159L48.4479 75H46.9999L46.6639 74.008ZM46.3119 72.952L45.6159 70.896L44.9279 72.952H46.3119ZM52.7943 71.16C52.693 70.9733 52.5463 70.832 52.3543 70.736C52.1676 70.6347 51.9463 70.584 51.6903 70.584C51.2476 70.584 50.893 70.7307 50.6263 71.024C50.3596 71.312 50.2263 71.6987 50.2263 72.184C50.2263 72.7013 50.365 73.1067 50.6423 73.4C50.925 73.688 51.3116 73.832 51.8023 73.832C52.1383 73.832 52.421 73.7467 52.6503 73.576C52.885 73.4053 53.0556 73.16 53.1623 72.84H51.4263V71.832H54.4023V73.104C54.301 73.4453 54.1276 73.7627 53.8823 74.056C53.6423 74.3493 53.3356 74.5867 52.9623 74.768C52.589 74.9493 52.1676 75.04 51.6983 75.04C51.1436 75.04 50.6476 74.92 50.2103 74.68C49.7783 74.4347 49.4396 74.096 49.1943 73.664C48.9543 73.232 48.8343 72.7387 48.8343 72.184C48.8343 71.6293 48.9543 71.136 49.1943 70.704C49.4396 70.2667 49.7783 69.928 50.2103 69.688C50.6423 69.4427 51.1356 69.32 51.6903 69.32C52.3623 69.32 52.9276 69.4827 53.3863 69.808C53.8503 70.1333 54.157 70.584 54.3063 71.16H52.7943ZM56.5281 70.48V71.616H58.3601V72.672H56.5281V73.904H58.6001V75H55.1601V69.384H58.6001V70.48H56.5281ZM65.8482 69.384V75H64.4802V71.632L63.2242 75H62.1202L60.8562 71.624V75H59.4882V69.384H61.1042L62.6802 73.272L64.2402 69.384H65.8482ZM17.9223 87H16.5543L14.2663 83.536V87H12.8983V81.384H14.2663L16.5543 84.864V81.384H17.9223V87ZM22.41 86.008H20.314L19.978 87H18.546L20.578 81.384H22.162L24.194 87H22.746L22.41 86.008ZM22.058 84.952L21.362 82.896L20.674 84.952H22.058ZM19.77 80.992C19.898 80.2027 20.266 79.808 20.874 79.808C20.9913 79.808 21.0926 79.8267 21.178 79.864C21.2686 79.896 21.378 79.9467 21.506 80.016C21.602 80.0693 21.6793 80.1093 21.738 80.136C21.7966 80.1573 21.858 80.168 21.922 80.168C22.1193 80.168 22.234 80.048 22.266 79.808H22.97C22.842 80.5973 22.474 80.992 21.866 80.992C21.7486 80.992 21.6446 80.976 21.554 80.944C21.4686 80.9067 21.362 80.8533 21.234 80.784C21.138 80.7307 21.0606 80.6933 21.002 80.672C20.9433 80.6453 20.882 80.632 20.818 80.632C20.6206 80.632 20.5033 80.752 20.466 80.992H19.77ZM27.4684 87.056C26.9404 87.056 26.4551 86.9333 26.0124 86.688C25.5751 86.4427 25.2257 86.1013 24.9644 85.664C24.7084 85.2213 24.5804 84.7253 24.5804 84.176C24.5804 83.6267 24.7084 83.1333 24.9644 82.696C25.2257 82.2587 25.5751 81.9173 26.0124 81.672C26.4551 81.4267 26.9404 81.304 27.4684 81.304C27.9964 81.304 28.4791 81.4267 28.9164 81.672C29.3591 81.9173 29.7057 82.2587 29.9564 82.696C30.2124 83.1333 30.3404 83.6267 30.3404 84.176C30.3404 84.7253 30.2124 85.2213 29.9564 85.664C29.7004 86.1013 29.3537 86.4427 28.9164 86.688C28.4791 86.9333 27.9964 87.056 27.4684 87.056ZM27.4684 85.808C27.9164 85.808 28.2737 85.6587 28.5404 85.36C28.8124 85.0613 28.9484 84.6667 28.9484 84.176C28.9484 83.68 28.8124 83.2853 28.5404 82.992C28.2737 82.6933 27.9164 82.544 27.4684 82.544C27.0151 82.544 26.6524 82.6907 26.3804 82.984C26.1137 83.2773 25.9804 83.6747 25.9804 84.176C25.9804 84.672 26.1137 85.0693 26.3804 85.368C26.6524 85.6613 27.0151 85.808 27.4684 85.808ZM34.1648 82.48V83.616H35.9968V84.672H34.1648V85.904H36.2368V87H32.7968V81.384H36.2368V82.48H34.1648ZM42.1489 87H40.7809L38.4929 83.536V87H37.1249V81.384H38.4929L40.7809 84.864V81.384H42.1489V87ZM42.9085 84.184C42.9085 83.6293 43.0285 83.136 43.2685 82.704C43.5085 82.2667 43.8419 81.928 44.2685 81.688C44.7005 81.4427 45.1885 81.32 45.7325 81.32C46.3992 81.32 46.9699 81.496 47.4445 81.848C47.9192 82.2 48.2365 82.68 48.3965 83.288H46.8925C46.7805 83.0533 46.6205 82.8747 46.4125 82.752C46.2099 82.6293 45.9779 82.568 45.7165 82.568C45.2952 82.568 44.9539 82.7147 44.6925 83.008C44.4312 83.3013 44.3005 83.6933 44.3005 84.184C44.3005 84.6747 44.4312 85.0667 44.6925 85.36C44.9539 85.6533 45.2952 85.8 45.7165 85.8C45.9779 85.8 46.2099 85.7387 46.4125 85.616C46.6205 85.4933 46.7805 85.3147 46.8925 85.08H48.3965C48.2365 85.688 47.9192 86.168 47.4445 86.52C46.9699 86.8667 46.3992 87.04 45.7325 87.04C45.1885 87.04 44.7005 86.92 44.2685 86.68C43.8419 86.4347 43.5085 86.096 43.2685 85.664C43.0285 85.232 42.9085 84.7387 42.9085 84.184ZM51.8903 87.056C51.3623 87.056 50.8769 86.9333 50.4343 86.688C49.9969 86.4427 49.6476 86.1013 49.3863 85.664C49.1303 85.2213 49.0023 84.7253 49.0023 84.176C49.0023 83.6267 49.1303 83.1333 49.3863 82.696C49.6476 82.2587 49.9969 81.9173 50.4343 81.672C50.8769 81.4267 51.3623 81.304 51.8903 81.304C52.4183 81.304 52.9009 81.4267 53.3383 81.672C53.7809 81.9173 54.1276 82.2587 54.3783 82.696C54.6343 83.1333 54.7623 83.6267 54.7623 84.176C54.7623 84.7253 54.6343 85.2213 54.3783 85.664C54.1223 86.1013 53.7756 86.4427 53.3383 86.688C52.9009 86.9333 52.4183 87.056 51.8903 87.056ZM51.8903 85.808C52.3383 85.808 52.6956 85.6587 52.9623 85.36C53.2343 85.0613 53.3703 84.6667 53.3703 84.176C53.3703 83.68 53.2343 83.2853 52.9623 82.992C52.6956 82.6933 52.3383 82.544 51.8903 82.544C51.4369 82.544 51.0743 82.6907 50.8023 82.984C50.5356 83.2773 50.4023 83.6747 50.4023 84.176C50.4023 84.672 50.5356 85.0693 50.8023 85.368C51.0743 85.6613 51.4369 85.808 51.8903 85.808ZM60.5473 87H59.1793L56.8913 83.536V87H55.5233V81.384H56.8913L59.1793 84.864V81.384H60.5473V87ZM65.579 81.384V82.48H64.091V87H62.723V82.48H61.235V81.384H65.579ZM69.1295 87L67.9615 84.88H67.6335V87H66.2655V81.384H68.5615C69.0042 81.384 69.3802 81.4613 69.6895 81.616C70.0042 81.7707 70.2389 81.984 70.3935 82.256C70.5482 82.5227 70.6255 82.8213 70.6255 83.152C70.6255 83.5253 70.5189 83.8587 70.3055 84.152C70.0975 84.4453 69.7882 84.6533 69.3775 84.776L70.6735 87H69.1295ZM67.6335 83.912H68.4815C68.7322 83.912 68.9189 83.8507 69.0415 83.728C69.1695 83.6053 69.2335 83.432 69.2335 83.208C69.2335 82.9947 69.1695 82.8267 69.0415 82.704C68.9189 82.5813 68.7322 82.52 68.4815 82.52H67.6335V83.912ZM74.9803 86.008H72.8843L72.5483 87H71.1163L73.1483 81.384H74.7323L76.7643 87H75.3163L74.9803 86.008ZM74.6283 84.952L73.9323 82.896L73.2443 84.952H74.6283ZM79.4867 81.384C80.0787 81.384 80.5961 81.5013 81.0387 81.736C81.4814 81.9707 81.8227 82.3013 82.0627 82.728C82.3081 83.1493 82.4307 83.6373 82.4307 84.192C82.4307 84.7413 82.3081 85.2293 82.0627 85.656C81.8227 86.0827 81.4787 86.4133 81.0307 86.648C80.5881 86.8827 80.0734 87 79.4867 87H77.3827V81.384H79.4867ZM79.3987 85.816C79.9161 85.816 80.3187 85.6747 80.6067 85.392C80.8947 85.1093 81.0387 84.7093 81.0387 84.192C81.0387 83.6747 80.8947 83.272 80.6067 82.984C80.3187 82.696 79.9161 82.552 79.3987 82.552H78.7507V85.816H79.3987ZM86.6912 86.008H84.5952L84.2592 87H82.8272L84.8592 81.384H86.4432L88.4752 87H87.0272L86.6912 86.008ZM86.3392 84.952L85.6432 82.896L84.9552 84.952H86.3392Z" fill="#3D3D3D"/>
<defs>
<clipPath id="clip0_4026_13838">
<rect width="54" height="48" fill="white" transform="translate(27 12)"/>
</clipPath>
</defs>
</svg>
