<svg width="550" height="388" viewBox="0 0 550 388" fill="none" xmlns="http://www.w3.org/2000/svg">
<g clip-path="url(#clip0_4023_13826)">
<rect width="550" height="388" fill="white"/>
<path d="M59.9404 298.536V321H54.4684V298.536H59.9404ZM89.3459 298.536V321H83.8739V307.528L78.8499 321H74.4339L69.3779 307.496V321H63.9059V298.536H70.3699L76.6739 314.088L82.9139 298.536H89.3459ZM107.265 317.032H98.8809L97.5369 321H91.8089L99.9369 298.536H106.273L114.401 321H108.609L107.265 317.032ZM105.857 312.808L103.073 304.584L100.321 312.808H105.857ZM131.787 305.64C131.381 304.893 130.795 304.328 130.027 303.944C129.28 303.539 128.395 303.336 127.371 303.336C125.6 303.336 124.181 303.923 123.115 305.096C122.048 306.248 121.515 307.795 121.515 309.736C121.515 311.805 122.069 313.427 123.179 314.6C124.309 315.752 125.856 316.328 127.819 316.328C129.163 316.328 130.293 315.987 131.211 315.304C132.149 314.621 132.832 313.64 133.259 312.36H126.315V308.328H138.219V313.416C137.813 314.781 137.12 316.051 136.139 317.224C135.179 318.397 133.952 319.347 132.459 320.072C130.965 320.797 129.28 321.16 127.403 321.16C125.184 321.16 123.2 320.68 121.451 319.72C119.723 318.739 118.368 317.384 117.387 315.656C116.427 313.928 115.947 311.955 115.947 309.736C115.947 307.517 116.427 305.544 117.387 303.816C118.368 302.067 119.723 300.712 121.451 299.752C123.179 298.771 125.152 298.28 127.371 298.28C130.059 298.28 132.32 298.931 134.155 300.232C136.011 301.533 137.237 303.336 137.835 305.64H131.787ZM146.722 302.92V307.464H154.05V311.688H146.722V316.616H155.01V321H141.25V298.536H155.01V302.92H146.722ZM184.002 298.536V321H178.53V307.528L173.506 321H169.09L164.034 307.496V321H158.562V298.536H165.026L171.33 314.088L177.57 298.536H184.002ZM214.814 321H209.342L200.19 307.144V321H194.718V298.536H200.19L209.342 312.456V298.536H214.814V321ZM232.765 317.032H224.381L223.037 321H217.309L225.437 298.536H231.773L239.901 321H234.109L232.765 317.032ZM231.357 312.808L228.573 304.584L225.821 312.808H231.357ZM222.205 296.968C222.717 293.811 224.189 292.232 226.621 292.232C227.09 292.232 227.496 292.307 227.837 292.456C228.2 292.584 228.637 292.787 229.149 293.064C229.533 293.277 229.842 293.437 230.077 293.544C230.312 293.629 230.557 293.672 230.813 293.672C231.602 293.672 232.061 293.192 232.189 292.232H235.005C234.493 295.389 233.021 296.968 230.589 296.968C230.12 296.968 229.704 296.904 229.341 296.776C229 296.627 228.573 296.413 228.061 296.136C227.677 295.923 227.368 295.773 227.133 295.688C226.898 295.581 226.653 295.528 226.397 295.528C225.608 295.528 225.138 296.008 224.989 296.968H222.205ZM252.999 321.224C250.887 321.224 248.945 320.733 247.175 319.752C245.425 318.771 244.028 317.405 242.983 315.656C241.959 313.885 241.447 311.901 241.447 309.704C241.447 307.507 241.959 305.533 242.983 303.784C244.028 302.035 245.425 300.669 247.175 299.688C248.945 298.707 250.887 298.216 252.999 298.216C255.111 298.216 257.041 298.707 258.791 299.688C260.561 300.669 261.948 302.035 262.951 303.784C263.975 305.533 264.487 307.507 264.487 309.704C264.487 311.901 263.975 313.885 262.951 315.656C261.927 317.405 260.54 318.771 258.791 319.752C257.041 320.733 255.111 321.224 252.999 321.224ZM252.999 316.232C254.791 316.232 256.22 315.635 257.287 314.44C258.375 313.245 258.919 311.667 258.919 309.704C258.919 307.72 258.375 306.141 257.287 304.968C256.22 303.773 254.791 303.176 252.999 303.176C251.185 303.176 249.735 303.763 248.647 304.936C247.58 306.109 247.047 307.699 247.047 309.704C247.047 311.688 247.58 313.277 248.647 314.472C249.735 315.645 251.185 316.232 252.999 316.232ZM279.784 302.92V307.464H287.112V311.688H279.784V316.616H288.072V321H274.312V298.536H288.072V302.92H279.784ZM311.721 321H306.249L297.097 307.144V321H291.625V298.536H297.097L306.249 312.456V298.536H311.721V321ZM314.759 309.736C314.759 307.517 315.239 305.544 316.199 303.816C317.159 302.067 318.492 300.712 320.199 299.752C321.927 298.771 323.879 298.28 326.055 298.28C328.722 298.28 331.004 298.984 332.903 300.392C334.802 301.8 336.071 303.72 336.711 306.152H330.695C330.247 305.213 329.607 304.499 328.775 304.008C327.964 303.517 327.036 303.272 325.991 303.272C324.306 303.272 322.94 303.859 321.895 305.032C320.85 306.205 320.327 307.773 320.327 309.736C320.327 311.699 320.85 313.267 321.895 314.44C322.94 315.613 324.306 316.2 325.991 316.2C327.036 316.2 327.964 315.955 328.775 315.464C329.607 314.973 330.247 314.259 330.695 313.32H336.711C336.071 315.752 334.802 317.672 332.903 319.08C331.004 320.467 328.722 321.16 326.055 321.16C323.879 321.16 321.927 320.68 320.199 319.72C318.492 318.739 317.159 317.384 316.199 315.656C315.239 313.928 314.759 311.955 314.759 309.736ZM350.686 321.224C348.574 321.224 346.633 320.733 344.862 319.752C343.113 318.771 341.715 317.405 340.67 315.656C339.646 313.885 339.134 311.901 339.134 309.704C339.134 307.507 339.646 305.533 340.67 303.784C341.715 302.035 343.113 300.669 344.862 299.688C346.633 298.707 348.574 298.216 350.686 298.216C352.798 298.216 354.729 298.707 356.478 299.688C358.249 300.669 359.635 302.035 360.638 303.784C361.662 305.533 362.174 307.507 362.174 309.704C362.174 311.901 361.662 313.885 360.638 315.656C359.614 317.405 358.227 318.771 356.478 319.752C354.729 320.733 352.798 321.224 350.686 321.224ZM350.686 316.232C352.478 316.232 353.907 315.635 354.974 314.44C356.062 313.245 356.606 311.667 356.606 309.704C356.606 307.72 356.062 306.141 354.974 304.968C353.907 303.773 352.478 303.176 350.686 303.176C348.873 303.176 347.422 303.763 346.334 304.936C345.267 306.109 344.734 307.699 344.734 309.704C344.734 311.688 345.267 313.277 346.334 314.472C347.422 315.645 348.873 316.232 350.686 316.232ZM385.314 321H379.842L370.69 307.144V321H365.218V298.536H370.69L379.842 312.456V298.536H385.314V321ZM405.441 298.536V302.92H399.489V321H394.017V302.92H388.065V298.536H405.441ZM419.643 321L414.971 312.52H413.659V321H408.187V298.536H417.371C419.142 298.536 420.646 298.845 421.883 299.464C423.142 300.083 424.08 300.936 424.699 302.024C425.318 303.091 425.627 304.285 425.627 305.608C425.627 307.101 425.2 308.435 424.347 309.608C423.515 310.781 422.278 311.613 420.635 312.104L425.819 321H419.643ZM413.659 308.648H417.051C418.054 308.648 418.8 308.403 419.291 307.912C419.803 307.421 420.059 306.728 420.059 305.832C420.059 304.979 419.803 304.307 419.291 303.816C418.8 303.325 418.054 303.08 417.051 303.08H413.659V308.648ZM443.046 317.032H434.662L433.318 321H427.59L435.718 298.536H442.054L450.182 321H444.39L443.046 317.032ZM441.638 312.808L438.854 304.584L436.102 312.808H441.638ZM461.072 298.536C463.44 298.536 465.509 299.005 467.28 299.944C469.051 300.883 470.416 302.205 471.376 303.912C472.357 305.597 472.848 307.549 472.848 309.768C472.848 311.965 472.357 313.917 471.376 315.624C470.416 317.331 469.04 318.653 467.248 319.592C465.477 320.531 463.419 321 461.072 321H452.656V298.536H461.072ZM460.72 316.264C462.789 316.264 464.4 315.699 465.552 314.568C466.704 313.437 467.28 311.837 467.28 309.768C467.28 307.699 466.704 306.088 465.552 304.936C464.4 303.784 462.789 303.208 460.72 303.208H458.128V316.264H460.72ZM489.89 317.032H481.506L480.162 321H474.434L482.562 298.536H488.898L497.026 321H491.234L489.89 317.032ZM488.482 312.808L485.698 304.584L482.946 312.808H488.482Z" fill="#3D3D3D"/>
<g clip-path="url(#clip1_4023_13826)">
<path d="M187.25 66.7844C185.463 67.0687 181.4 68.6125 179.775 69.6687C177.46 71.0906 174.657 74.1375 173.357 76.5344C170.919 81.0031 171 77.5094 171 150.878C171 198.328 171.122 218.641 171.447 220.144C172.138 223.394 173.966 226.969 176.2 229.284C178.597 231.803 180.547 233.062 184 234.322L186.641 235.297H275C360.435 235.297 363.441 235.256 365.594 234.525C368.56 233.509 372.825 230.666 374.491 228.594C376.319 226.319 378.025 222.784 378.553 220.144C379.203 217.097 379.163 84.8625 378.553 81.8562C377.213 75.3562 372.582 70.075 366.041 67.5562L363.766 66.7031L276.016 66.6625C227.753 66.6219 187.819 66.6625 187.25 66.7844ZM362.547 79.4594C364.416 80.3125 365.757 81.6531 366.366 83.2781C366.691 84.05 366.813 96.8062 366.813 123.497V162.578L351.903 147.669C343.657 139.503 336.547 132.597 336.06 132.353C334.963 131.784 333.094 131.784 331.591 132.312C330.982 132.556 319.566 143.647 305.997 157.216L281.5 181.672L269.841 170.012C259.807 160.059 257.938 158.353 256.638 158.109C253.266 157.5 254.2 156.647 219.953 190.853L187.819 222.947L186.438 222.012C185.707 221.484 184.691 220.55 184.244 219.941L183.391 218.803L183.269 152.097C183.228 115.412 183.269 84.8219 183.391 84.0906C183.716 82.3437 185.422 80.3531 187.453 79.4594C188.997 78.7281 192.491 78.6875 275 78.6875C357.672 78.6875 361.003 78.7281 362.547 79.4594ZM366.813 198.612C366.813 211.044 366.65 217.95 366.366 218.722C365.757 220.347 364.416 221.687 362.547 222.541C361.003 223.272 357.875 223.312 282.922 223.312H204.922L230.191 198.044L255.5 172.734L266.753 183.947C272.969 190.162 278.453 195.403 278.941 195.647C280.16 196.256 282.963 196.216 284.263 195.525C284.872 195.2 296.247 184.028 309.532 170.744L333.703 146.531L350.238 163.066L366.813 179.641V198.612Z" fill="#3D3D3D"/>
<path d="M219.954 92.9062C209.879 94.0437 201.754 100.706 198.382 110.578C197.488 113.219 197.285 114.6 197.244 117.891C197.204 122.847 197.772 125.366 199.966 129.875C202.891 135.928 208.213 140.478 215.282 142.916C218.897 144.175 226.454 144.216 230.191 142.997C238.316 140.316 244.654 134.019 247.213 126.097C248.554 121.912 248.716 116.103 247.66 112C244.329 99.65 232.547 91.525 219.954 92.9062ZM228.647 106.312C236.244 110.172 238.519 119.8 233.441 126.462C228.566 132.922 219.06 133.572 213.372 127.884C208.294 122.766 208.01 114.803 212.722 109.562C216.785 105.053 223.488 103.672 228.647 106.312Z" fill="#3D3D3D"/>
</g>
<line x1="416.019" y1="88.2426" x2="239.242" y2="265.019" stroke="#45D7C6" stroke-width="12"/>
</g>
<defs>
<clipPath id="clip0_4023_13826">
<rect width="550" height="388" fill="white"/>
</clipPath>
<clipPath id="clip1_4023_13826">
<rect width="208" height="208" fill="white" transform="translate(171 47)"/>
</clipPath>
</defs>
</svg>
