<svg width="227" height="71" viewBox="0 0 227 71" fill="none" xmlns="http://www.w3.org/2000/svg">
<path d="M0.425781 25L17.4684 25.2124C26.8807 25.3298 34.4159 33.0551 34.2985 42.4675C34.1812 51.8798 26.4559 59.4149 17.0435 59.2976C7.63115 59.1803 0.0960264 51.455 0.213349 42.0426L0.425781 25Z" fill="url(#paint0_linear_1418_11089)" fill-opacity="0.8"/>
<path d="M49.8313 18.304V52H41.6233V31.792L34.0873 52H27.4633L19.8793 31.744V52H11.6713V18.304H21.3673L30.8233 41.632L40.1833 18.304H49.8313ZM67.9258 52.384C65.3018 52.384 62.9338 51.824 60.8218 50.704C58.7418 49.584 57.0938 47.984 55.8778 45.904C54.6938 43.824 54.1018 41.392 54.1018 38.608C54.1018 35.856 54.7098 33.44 55.9258 31.36C57.1418 29.248 58.8058 27.632 60.9178 26.512C63.0298 25.392 65.3978 24.832 68.0218 24.832C70.6458 24.832 73.0138 25.392 75.1258 26.512C77.2378 27.632 78.9018 29.248 80.1178 31.36C81.3338 33.44 81.9418 35.856 81.9418 38.608C81.9418 41.36 81.3178 43.792 80.0698 45.904C78.8538 47.984 77.1738 49.584 75.0298 50.704C72.9178 51.824 70.5498 52.384 67.9258 52.384ZM67.9258 45.28C69.4938 45.28 70.8218 44.704 71.9098 43.552C73.0298 42.4 73.5898 40.752 73.5898 38.608C73.5898 36.464 73.0458 34.816 71.9578 33.664C70.9018 32.512 69.5898 31.936 68.0218 31.936C66.4218 31.936 65.0938 32.512 64.0378 33.664C62.9818 34.784 62.4538 36.432 62.4538 38.608C62.4538 40.752 62.9658 42.4 63.9898 43.552C65.0458 44.704 66.3578 45.28 67.9258 45.28ZM84.6643 38.56C84.6643 35.808 85.1763 33.392 86.2003 31.312C87.2563 29.232 88.6803 27.632 90.4723 26.512C92.2643 25.392 94.2643 24.832 96.4723 24.832C98.2323 24.832 99.8323 25.2 101.272 25.936C102.744 26.672 103.896 27.664 104.728 28.912V16.48H112.936V52H104.728V48.16C103.96 49.44 102.856 50.464 101.416 51.232C100.008 52 98.3603 52.384 96.4723 52.384C94.2643 52.384 92.2643 51.824 90.4723 50.704C88.6803 49.552 87.2563 47.936 86.2003 45.856C85.1763 43.744 84.6643 41.312 84.6643 38.56ZM104.728 38.608C104.728 36.56 104.152 34.944 103 33.76C101.88 32.576 100.504 31.984 98.8723 31.984C97.2403 31.984 95.8483 32.576 94.6963 33.76C93.5763 34.912 93.0163 36.512 93.0163 38.56C93.0163 40.608 93.5763 42.24 94.6963 43.456C95.8483 44.64 97.2403 45.232 98.8723 45.232C100.504 45.232 101.88 44.64 103 43.456C104.152 42.272 104.728 40.656 104.728 38.608ZM144.122 38.176C144.122 38.944 144.074 39.744 143.978 40.576H125.402C125.53 42.24 126.058 43.52 126.986 44.416C127.946 45.28 129.114 45.712 130.49 45.712C132.538 45.712 133.962 44.848 134.762 43.12H143.498C143.05 44.88 142.234 46.464 141.05 47.872C139.898 49.28 138.442 50.384 136.682 51.184C134.922 51.984 132.954 52.384 130.778 52.384C128.154 52.384 125.818 51.824 123.77 50.704C121.722 49.584 120.122 47.984 118.97 45.904C117.818 43.824 117.242 41.392 117.242 38.608C117.242 35.824 117.802 33.392 118.922 31.312C120.074 29.232 121.674 27.632 123.722 26.512C125.77 25.392 128.122 24.832 130.778 24.832C133.37 24.832 135.674 25.376 137.69 26.464C139.706 27.552 141.274 29.104 142.394 31.12C143.546 33.136 144.122 35.488 144.122 38.176ZM135.722 36.016C135.722 34.608 135.242 33.488 134.282 32.656C133.322 31.824 132.122 31.408 130.682 31.408C129.306 31.408 128.138 31.808 127.178 32.608C126.25 33.408 125.674 34.544 125.45 36.016H135.722ZM159.349 52.384C157.013 52.384 154.933 51.984 153.109 51.184C151.285 50.384 149.845 49.296 148.789 47.92C147.733 46.512 147.141 44.944 147.013 43.216H155.125C155.221 44.144 155.653 44.896 156.421 45.472C157.189 46.048 158.133 46.336 159.253 46.336C160.277 46.336 161.061 46.144 161.605 45.76C162.181 45.344 162.469 44.816 162.469 44.176C162.469 43.408 162.069 42.848 161.269 42.496C160.469 42.112 159.173 41.696 157.381 41.248C155.461 40.8 153.861 40.336 152.581 39.856C151.301 39.344 150.197 38.56 149.269 37.504C148.341 36.416 147.877 34.96 147.877 33.136C147.877 31.6 148.293 30.208 149.125 28.96C149.989 27.68 151.237 26.672 152.869 25.936C154.533 25.2 156.501 24.832 158.773 24.832C162.133 24.832 164.773 25.664 166.693 27.328C168.645 28.992 169.765 31.2 170.053 33.952H162.469C162.341 33.024 161.925 32.288 161.221 31.744C160.549 31.2 159.653 30.928 158.533 30.928C157.573 30.928 156.837 31.12 156.325 31.504C155.813 31.856 155.557 32.352 155.557 32.992C155.557 33.76 155.957 34.336 156.757 34.72C157.589 35.104 158.869 35.488 160.597 35.872C162.581 36.384 164.197 36.896 165.445 37.408C166.693 37.888 167.781 38.688 168.709 39.808C169.669 40.896 170.165 42.368 170.197 44.224C170.197 45.792 169.749 47.2 168.853 48.448C167.989 49.664 166.725 50.624 165.061 51.328C163.429 52.032 161.525 52.384 159.349 52.384ZM190.146 45.04V52H185.97C182.994 52 180.674 51.28 179.01 49.84C177.346 48.368 176.514 45.984 176.514 42.688V32.032H173.25V25.216H176.514V18.688H184.722V25.216H190.098V32.032H184.722V42.784C184.722 43.584 184.914 44.16 185.298 44.512C185.682 44.864 186.322 45.04 187.218 45.04H190.146ZM206.91 52.384C204.286 52.384 201.918 51.824 199.806 50.704C197.726 49.584 196.078 47.984 194.862 45.904C193.678 43.824 193.086 41.392 193.086 38.608C193.086 35.856 193.694 33.44 194.91 31.36C196.126 29.248 197.79 27.632 199.902 26.512C202.014 25.392 204.382 24.832 207.006 24.832C209.63 24.832 211.998 25.392 214.11 26.512C216.222 27.632 217.886 29.248 219.102 31.36C220.318 33.44 220.926 35.856 220.926 38.608C220.926 41.36 220.302 43.792 219.054 45.904C217.838 47.984 216.158 49.584 214.014 50.704C211.902 51.824 209.534 52.384 206.91 52.384ZM206.91 45.28C208.478 45.28 209.806 44.704 210.894 43.552C212.014 42.4 212.574 40.752 212.574 38.608C212.574 36.464 212.03 34.816 210.942 33.664C209.886 32.512 208.574 31.936 207.006 31.936C205.406 31.936 204.078 32.512 203.022 33.664C201.966 34.784 201.438 36.432 201.438 38.608C201.438 40.752 201.95 42.4 202.974 43.552C204.03 44.704 205.342 45.28 206.91 45.28Z" fill="url(#paint1_linear_1418_11089)"/>
<defs>
<linearGradient id="paint0_linear_1418_11089" x1="0.425781" y1="25" x2="38.1444" y2="30.2275" gradientUnits="userSpaceOnUse">
<stop stop-color="#77FCED"/>
<stop offset="1" stop-color="#7882A9"/>
</linearGradient>
<linearGradient id="paint1_linear_1418_11089" x1="4" y1="0" x2="221.122" y2="85.8641" gradientUnits="userSpaceOnUse">
<stop offset="0.45" stop-color="#08090E"/>
<stop offset="0.725" stop-color="#7882A9"/>
<stop offset="1" stop-color="#77FCED"/>
</linearGradient>
</defs>
</svg>
