<svg width="194" height="63" viewBox="0 0 194 63" fill="none" xmlns="http://www.w3.org/2000/svg">
<path d="M21 15H43C55.1503 15 65 24.8497 65 37C65 49.1503 55.1503 59 43 59C30.8497 59 21 49.1503 21 37V15Z" fill="url(#paint0_linear_3547_19071)" fill-opacity="0.8"/>
<path d="M30.354 21.728V47H24.198V31.844L18.546 47H13.578L7.88995 31.808V47H1.73395V21.728H9.00595L16.098 39.224L23.118 21.728H30.354ZM43.9248 47.288C41.9568 47.288 40.1808 46.868 38.5968 46.028C37.0368 45.188 35.8008 43.988 34.8888 42.428C34.0008 40.868 33.5568 39.044 33.5568 36.956C33.5568 34.892 34.0128 33.08 34.9248 31.52C35.8368 29.936 37.0848 28.724 38.6688 27.884C40.2528 27.044 42.0288 26.624 43.9968 26.624C45.9648 26.624 47.7408 27.044 49.3248 27.884C50.9088 28.724 52.1568 29.936 53.0688 31.52C53.9808 33.08 54.4368 34.892 54.4368 36.956C54.4368 39.02 53.9688 40.844 53.0328 42.428C52.1208 43.988 50.8608 45.188 49.2528 46.028C47.6688 46.868 45.8928 47.288 43.9248 47.288ZM43.9248 41.96C45.1008 41.96 46.0968 41.528 46.9128 40.664C47.7528 39.8 48.1728 38.564 48.1728 36.956C48.1728 35.348 47.7648 34.112 46.9488 33.248C46.1568 32.384 45.1728 31.952 43.9968 31.952C42.7968 31.952 41.8008 32.384 41.0088 33.248C40.2168 34.088 39.8208 35.324 39.8208 36.956C39.8208 38.564 40.2048 39.8 40.9728 40.664C41.7648 41.528 42.7488 41.96 43.9248 41.96ZM56.4787 36.92C56.4787 34.856 56.8627 33.044 57.6307 31.484C58.4227 29.924 59.4907 28.724 60.8347 27.884C62.1787 27.044 63.6787 26.624 65.3347 26.624C66.6547 26.624 67.8547 26.9 68.9347 27.452C70.0387 28.004 70.9027 28.748 71.5267 29.684V20.36H77.6827V47H71.5267V44.12C70.9507 45.08 70.1227 45.848 69.0427 46.424C67.9867 47 66.7507 47.288 65.3347 47.288C63.6787 47.288 62.1787 46.868 60.8347 46.028C59.4907 45.164 58.4227 43.952 57.6307 42.392C56.8627 40.808 56.4787 38.984 56.4787 36.92ZM71.5267 36.956C71.5267 35.42 71.0947 34.208 70.2307 33.32C69.3907 32.432 68.3587 31.988 67.1347 31.988C65.9107 31.988 64.8667 32.432 64.0027 33.32C63.1627 34.184 62.7427 35.384 62.7427 36.92C62.7427 38.456 63.1627 39.68 64.0027 40.592C64.8667 41.48 65.9107 41.924 67.1347 41.924C68.3587 41.924 69.3907 41.48 70.2307 40.592C71.0947 39.704 71.5267 38.492 71.5267 36.956ZM101.072 36.632C101.072 37.208 101.036 37.808 100.964 38.432H87.0323C87.1283 39.68 87.5243 40.64 88.2203 41.312C88.9403 41.96 89.8163 42.284 90.8483 42.284C92.3843 42.284 93.4523 41.636 94.0523 40.34H100.604C100.268 41.66 99.6563 42.848 98.7683 43.904C97.9043 44.96 96.8123 45.788 95.4923 46.388C94.1723 46.988 92.6963 47.288 91.0643 47.288C89.0963 47.288 87.3443 46.868 85.8083 46.028C84.2723 45.188 83.0723 43.988 82.2083 42.428C81.3443 40.868 80.9123 39.044 80.9123 36.956C80.9123 34.868 81.3323 33.044 82.1723 31.484C83.0363 29.924 84.2363 28.724 85.7723 27.884C87.3083 27.044 89.0723 26.624 91.0643 26.624C93.0083 26.624 94.7363 27.032 96.2483 27.848C97.7603 28.664 98.9363 29.828 99.7763 31.34C100.64 32.852 101.072 34.616 101.072 36.632ZM94.7723 35.012C94.7723 33.956 94.4123 33.116 93.6923 32.492C92.9723 31.868 92.0723 31.556 90.9923 31.556C89.9603 31.556 89.0843 31.856 88.3643 32.456C87.6683 33.056 87.2363 33.908 87.0683 35.012H94.7723ZM112.492 47.288C110.74 47.288 109.18 46.988 107.812 46.388C106.444 45.788 105.364 44.972 104.572 43.94C103.78 42.884 103.336 41.708 103.24 40.412H109.324C109.396 41.108 109.72 41.672 110.296 42.104C110.872 42.536 111.58 42.752 112.42 42.752C113.188 42.752 113.776 42.608 114.184 42.32C114.616 42.008 114.832 41.612 114.832 41.132C114.832 40.556 114.532 40.136 113.932 39.872C113.332 39.584 112.36 39.272 111.016 38.936C109.576 38.6 108.376 38.252 107.416 37.892C106.456 37.508 105.628 36.92 104.932 36.128C104.236 35.312 103.888 34.22 103.888 32.852C103.888 31.7 104.2 30.656 104.824 29.72C105.472 28.76 106.408 28.004 107.632 27.452C108.88 26.9 110.356 26.624 112.06 26.624C114.58 26.624 116.56 27.248 118 28.496C119.464 29.744 120.304 31.4 120.52 33.464H114.832C114.736 32.768 114.424 32.216 113.896 31.808C113.392 31.4 112.72 31.196 111.88 31.196C111.16 31.196 110.608 31.34 110.224 31.628C109.84 31.892 109.648 32.264 109.648 32.744C109.648 33.32 109.948 33.752 110.548 34.04C111.172 34.328 112.132 34.616 113.428 34.904C114.916 35.288 116.128 35.672 117.064 36.056C118 36.416 118.816 37.016 119.512 37.856C120.232 38.672 120.604 39.776 120.628 41.168C120.628 42.344 120.292 43.4 119.62 44.336C118.972 45.248 118.024 45.968 116.776 46.496C115.552 47.024 114.124 47.288 112.492 47.288ZM135.59 41.78V47H132.458C130.226 47 128.486 46.46 127.238 45.38C125.99 44.276 125.366 42.488 125.366 40.016V32.024H122.918V26.912H125.366V22.016H131.522V26.912H135.554V32.024H131.522V40.088C131.522 40.688 131.666 41.12 131.954 41.384C132.242 41.648 132.722 41.78 133.394 41.78H135.59ZM148.163 47.288C146.195 47.288 144.419 46.868 142.835 46.028C141.275 45.188 140.039 43.988 139.127 42.428C138.239 40.868 137.795 39.044 137.795 36.956C137.795 34.892 138.251 33.08 139.163 31.52C140.075 29.936 141.323 28.724 142.907 27.884C144.491 27.044 146.267 26.624 148.235 26.624C150.203 26.624 151.979 27.044 153.563 27.884C155.147 28.724 156.395 29.936 157.307 31.52C158.219 33.08 158.675 34.892 158.675 36.956C158.675 39.02 158.207 40.844 157.271 42.428C156.359 43.988 155.099 45.188 153.491 46.028C151.907 46.868 150.131 47.288 148.163 47.288ZM148.163 41.96C149.339 41.96 150.335 41.528 151.151 40.664C151.991 39.8 152.411 38.564 152.411 36.956C152.411 35.348 152.003 34.112 151.187 33.248C150.395 32.384 149.411 31.952 148.235 31.952C147.035 31.952 146.039 32.384 145.247 33.248C144.455 34.088 144.059 35.324 144.059 36.956C144.059 38.564 144.443 39.8 145.211 40.664C146.003 41.528 146.987 41.96 148.163 41.96ZM175.657 12.8L166.009 53.732H160.069L169.717 12.8H175.657ZM178.289 26.444H186.029L193.337 34.4L186.029 42.356H178.289L185.633 34.4L178.289 26.444Z" fill="url(#paint1_linear_3547_19071)"/>
<path d="M3.28992 9.452L0.853922 6.8L3.28992 4.148H5.86992L3.42192 6.8L5.86992 9.452H3.28992ZM7.1153 7.64C7.1153 6.952 7.2433 6.348 7.4993 5.828C7.7633 5.308 8.1193 4.908 8.5673 4.628C9.0153 4.348 9.5153 4.208 10.0673 4.208C10.5073 4.208 10.9073 4.3 11.2673 4.484C11.6353 4.668 11.9233 4.916 12.1313 5.228V2.12H14.1833V11H12.1313V10.04C11.9393 10.36 11.6633 10.616 11.3033 10.808C10.9513 11 10.5393 11.096 10.0673 11.096C9.5153 11.096 9.0153 10.956 8.5673 10.676C8.1193 10.388 7.7633 9.984 7.4993 9.464C7.2433 8.936 7.1153 8.328 7.1153 7.64ZM12.1313 7.652C12.1313 7.14 11.9873 6.736 11.6993 6.44C11.4193 6.144 11.0753 5.996 10.6673 5.996C10.2593 5.996 9.9113 6.144 9.6233 6.44C9.3433 6.728 9.2033 7.128 9.2033 7.64C9.2033 8.152 9.3433 8.56 9.6233 8.864C9.9113 9.16 10.2593 9.308 10.6673 9.308C11.0753 9.308 11.4193 9.16 11.6993 8.864C11.9873 8.568 12.1313 8.164 12.1313 7.652ZM21.9798 7.544C21.9798 7.736 21.9678 7.936 21.9438 8.144H17.2998C17.3318 8.56 17.4638 8.88 17.6958 9.104C17.9358 9.32 18.2278 9.428 18.5718 9.428C19.0838 9.428 19.4398 9.212 19.6398 8.78H21.8238C21.7118 9.22 21.5078 9.616 21.2118 9.968C20.9238 10.32 20.5598 10.596 20.1198 10.796C19.6798 10.996 19.1878 11.096 18.6438 11.096C17.9878 11.096 17.4038 10.956 16.8918 10.676C16.3798 10.396 15.9798 9.996 15.6918 9.476C15.4038 8.956 15.2598 8.348 15.2598 7.652C15.2598 6.956 15.3998 6.348 15.6798 5.828C15.9678 5.308 16.3678 4.908 16.8798 4.628C17.3918 4.348 17.9798 4.208 18.6438 4.208C19.2918 4.208 19.8678 4.344 20.3718 4.616C20.8758 4.888 21.2678 5.276 21.5478 5.78C21.8358 6.284 21.9798 6.872 21.9798 7.544ZM19.8798 7.004C19.8798 6.652 19.7598 6.372 19.5198 6.164C19.2798 5.956 18.9798 5.852 18.6198 5.852C18.2758 5.852 17.9838 5.952 17.7438 6.152C17.5118 6.352 17.3678 6.636 17.3118 7.004H19.8798ZM26.0744 9.08L27.5264 4.304H29.7104L27.3344 11H24.8024L22.4264 4.304H24.6224L26.0744 9.08Z" fill="url(#paint2_linear_3547_19071)"/>
<defs>
<linearGradient id="paint0_linear_3547_19071" x1="21" y1="15" x2="69.7669" y2="21.1403" gradientUnits="userSpaceOnUse">
<stop stop-color="#77FCED"/>
<stop offset="1" stop-color="#7882A9"/>
</linearGradient>
<linearGradient id="paint1_linear_3547_19071" x1="-2" y1="18" x2="136.898" y2="126.758" gradientUnits="userSpaceOnUse">
<stop offset="0.45" stop-color="#08090E"/>
<stop offset="0.725" stop-color="#7882A9"/>
<stop offset="1" stop-color="#77FCED"/>
</linearGradient>
<linearGradient id="paint2_linear_3547_19071" x1="-1" y1="0" x2="32.2732" y2="9.57589" gradientUnits="userSpaceOnUse">
<stop offset="0.45" stop-color="#08090E"/>
<stop offset="0.725" stop-color="#7882A9"/>
<stop offset="1" stop-color="#77FCED"/>
</linearGradient>
</defs>
</svg>
