<svg width="227" height="44" viewBox="0 0 227 44" fill="none" xmlns="http://www.w3.org/2000/svg">
<path d="M0.424805 9L17.4674 9.21243C26.8798 9.32975 34.4149 17.0551 34.2976 26.4675V26.4675C34.1802 35.8798 26.4549 43.4149 17.0425 43.2976V43.2976C7.63017 43.1803 0.0950498 35.455 0.212373 26.0426L0.424805 9Z" fill="url(#paint0_linear_3178_138)" fill-opacity="0.8"/>
<path d="M50.136 2.304V36H41.928V15.792L34.392 36H27.768L20.184 15.744V36H11.976V2.304H21.672L31.128 25.632L40.488 2.304H50.136ZM68.2305 36.384C65.6065 36.384 63.2385 35.824 61.1265 34.704C59.0465 33.584 57.3985 31.984 56.1825 29.904C54.9985 27.824 54.4065 25.392 54.4065 22.608C54.4065 19.856 55.0145 17.44 56.2305 15.36C57.4465 13.248 59.1105 11.632 61.2225 10.512C63.3345 9.392 65.7025 8.832 68.3265 8.832C70.9505 8.832 73.3185 9.392 75.4305 10.512C77.5425 11.632 79.2065 13.248 80.4225 15.36C81.6385 17.44 82.2465 19.856 82.2465 22.608C82.2465 25.36 81.6225 27.792 80.3745 29.904C79.1585 31.984 77.4785 33.584 75.3345 34.704C73.2225 35.824 70.8545 36.384 68.2305 36.384ZM68.2305 29.28C69.7985 29.28 71.1265 28.704 72.2145 27.552C73.3345 26.4 73.8945 24.752 73.8945 22.608C73.8945 20.464 73.3505 18.816 72.2625 17.664C71.2065 16.512 69.8945 15.936 68.3265 15.936C66.7265 15.936 65.3985 16.512 64.3425 17.664C63.2865 18.784 62.7585 20.432 62.7585 22.608C62.7585 24.752 63.2705 26.4 64.2945 27.552C65.3505 28.704 66.6625 29.28 68.2305 29.28ZM84.969 22.56C84.969 19.808 85.481 17.392 86.505 15.312C87.561 13.232 88.985 11.632 90.777 10.512C92.569 9.392 94.569 8.832 96.777 8.832C98.537 8.832 100.137 9.2 101.577 9.936C103.049 10.672 104.201 11.664 105.033 12.912V0.48H113.241V36H105.033V32.16C104.265 33.44 103.161 34.464 101.721 35.232C100.313 36 98.665 36.384 96.777 36.384C94.569 36.384 92.569 35.824 90.777 34.704C88.985 33.552 87.561 31.936 86.505 29.856C85.481 27.744 84.969 25.312 84.969 22.56ZM105.033 22.608C105.033 20.56 104.457 18.944 103.305 17.76C102.185 16.576 100.809 15.984 99.177 15.984C97.545 15.984 96.153 16.576 95.001 17.76C93.881 18.912 93.321 20.512 93.321 22.56C93.321 24.608 93.881 26.24 95.001 27.456C96.153 28.64 97.545 29.232 99.177 29.232C100.809 29.232 102.185 28.64 103.305 27.456C104.457 26.272 105.033 24.656 105.033 22.608ZM144.427 22.176C144.427 22.944 144.379 23.744 144.283 24.576H125.707C125.835 26.24 126.363 27.52 127.291 28.416C128.251 29.28 129.419 29.712 130.795 29.712C132.843 29.712 134.267 28.848 135.067 27.12H143.803C143.355 28.88 142.539 30.464 141.355 31.872C140.203 33.28 138.747 34.384 136.987 35.184C135.227 35.984 133.259 36.384 131.083 36.384C128.459 36.384 126.123 35.824 124.075 34.704C122.027 33.584 120.427 31.984 119.275 29.904C118.123 27.824 117.547 25.392 117.547 22.608C117.547 19.824 118.107 17.392 119.227 15.312C120.379 13.232 121.979 11.632 124.027 10.512C126.075 9.392 128.427 8.832 131.083 8.832C133.675 8.832 135.979 9.376 137.995 10.464C140.011 11.552 141.579 13.104 142.699 15.12C143.851 17.136 144.427 19.488 144.427 22.176ZM136.027 20.016C136.027 18.608 135.547 17.488 134.587 16.656C133.627 15.824 132.427 15.408 130.987 15.408C129.611 15.408 128.443 15.808 127.483 16.608C126.555 17.408 125.979 18.544 125.755 20.016H136.027ZM159.653 36.384C157.317 36.384 155.237 35.984 153.413 35.184C151.589 34.384 150.149 33.296 149.093 31.92C148.037 30.512 147.445 28.944 147.317 27.216H155.429C155.525 28.144 155.957 28.896 156.725 29.472C157.493 30.048 158.437 30.336 159.557 30.336C160.581 30.336 161.365 30.144 161.909 29.76C162.485 29.344 162.773 28.816 162.773 28.176C162.773 27.408 162.373 26.848 161.573 26.496C160.773 26.112 159.477 25.696 157.685 25.248C155.765 24.8 154.165 24.336 152.885 23.856C151.605 23.344 150.501 22.56 149.573 21.504C148.645 20.416 148.181 18.96 148.181 17.136C148.181 15.6 148.597 14.208 149.429 12.96C150.293 11.68 151.541 10.672 153.173 9.936C154.837 9.2 156.805 8.832 159.077 8.832C162.437 8.832 165.077 9.664 166.997 11.328C168.949 12.992 170.069 15.2 170.357 17.952H162.773C162.645 17.024 162.229 16.288 161.525 15.744C160.853 15.2 159.957 14.928 158.837 14.928C157.877 14.928 157.141 15.12 156.629 15.504C156.117 15.856 155.861 16.352 155.861 16.992C155.861 17.76 156.261 18.336 157.061 18.72C157.893 19.104 159.173 19.488 160.901 19.872C162.885 20.384 164.501 20.896 165.749 21.408C166.997 21.888 168.085 22.688 169.013 23.808C169.973 24.896 170.469 26.368 170.501 28.224C170.501 29.792 170.053 31.2 169.157 32.448C168.293 33.664 167.029 34.624 165.365 35.328C163.733 36.032 161.829 36.384 159.653 36.384ZM190.451 29.04V36H186.275C183.299 36 180.979 35.28 179.315 33.84C177.651 32.368 176.819 29.984 176.819 26.688V16.032H173.555V9.216H176.819V2.688H185.027V9.216H190.403V16.032H185.027V26.784C185.027 27.584 185.219 28.16 185.603 28.512C185.987 28.864 186.627 29.04 187.523 29.04H190.451ZM207.215 36.384C204.591 36.384 202.223 35.824 200.111 34.704C198.031 33.584 196.383 31.984 195.167 29.904C193.983 27.824 193.391 25.392 193.391 22.608C193.391 19.856 193.999 17.44 195.215 15.36C196.431 13.248 198.095 11.632 200.207 10.512C202.319 9.392 204.687 8.832 207.311 8.832C209.935 8.832 212.303 9.392 214.415 10.512C216.527 11.632 218.191 13.248 219.407 15.36C220.623 17.44 221.231 19.856 221.231 22.608C221.231 25.36 220.607 27.792 219.359 29.904C218.143 31.984 216.463 33.584 214.319 34.704C212.207 35.824 209.839 36.384 207.215 36.384ZM207.215 29.28C208.783 29.28 210.111 28.704 211.199 27.552C212.319 26.4 212.879 24.752 212.879 22.608C212.879 20.464 212.335 18.816 211.247 17.664C210.191 16.512 208.879 15.936 207.311 15.936C205.711 15.936 204.383 16.512 203.327 17.664C202.271 18.784 201.743 20.432 201.743 22.608C201.743 24.752 202.255 26.4 203.279 27.552C204.335 28.704 205.647 29.28 207.215 29.28Z" fill="url(#paint1_linear_3178_138)"/>
<defs>
<linearGradient id="paint0_linear_3178_138" x1="0.424805" y1="9" x2="38.1435" y2="14.2275" gradientUnits="userSpaceOnUse">
<stop stop-color="#77FCED"/>
<stop offset="1" stop-color="#7882A9"/>
</linearGradient>
<linearGradient id="paint1_linear_3178_138" x1="9" y1="-11" x2="214.972" y2="85.388" gradientUnits="userSpaceOnUse">
<stop offset="0.415" stop-color="#F5F5F5"/>
<stop offset="0.725" stop-color="#7882A9"/>
<stop offset="1" stop-color="#77FCED"/>
</linearGradient>
</defs>
</svg>
