<svg width="112" height="121" viewBox="0 0 112 121" fill="none" xmlns="http://www.w3.org/2000/svg">
<path d="M99.8317 28.5234C99.8317 16.9286 80.2415 7.13086 57.0467 7.13086C33.8519 7.13086 14.2617 16.9286 14.2617 28.5234V39.2196C14.2617 50.8143 33.8519 60.6121 57.0467 60.6121C80.2415 60.6121 99.8317 50.8143 99.8317 39.2196V28.5234ZM57.0467 98.049C33.8519 98.049 14.2617 88.2512 14.2617 76.6565V92.7009C14.2617 104.296 33.8519 114.093 57.0467 114.093C80.2415 114.093 99.8317 104.296 99.8317 92.7009V76.6565C99.8317 88.2512 80.2415 98.049 57.0467 98.049Z" fill="#7A7A7A"/>
<path d="M99.8317 49.9158C99.8317 61.5105 80.2415 71.3083 57.0467 71.3083C33.8519 71.3083 14.2617 61.5105 14.2617 49.9158V65.9601C14.2617 77.5549 33.8519 87.3526 57.0467 87.3526C80.2415 87.3526 99.8317 77.5549 99.8317 65.9601V49.9158Z" fill="#7A7A7A"/>
</svg>
