<svg width="128" height="128" viewBox="0 0 128 128" fill="none" xmlns="http://www.w3.org/2000/svg">
<g clip-path="url(#clip0_1607_408)">
<path d="M2 1V126H130V1H2ZM69.7059 107.513C67.8166 111.262 64.2101 113.725 60.0311 114.914C53.6096 116.354 47.4676 115.533 42.8986 112.855C39.8409 111.023 37.4529 108.203 35.8319 104.954L45.5804 99.124C45.6654 99.159 45.9214 99.611 46.2634 100.195C47.5066 102.229 48.5787 103.669 50.6861 104.68C52.7566 105.37 57.3021 105.811 59.0573 102.253C60.1294 100.443 59.7884 94.625 59.7884 88.188C59.7874 78.073 59.8355 68 59.8355 58H71.8255C71.8255 69 71.887 79.418 71.8255 90.152C71.8511 96.732 72.4358 102.598 69.7059 107.513ZM119.446 104.205C115.278 118.127 92.0413 118.579 82.7557 109.381C80.7937 107.216 79.5639 106.085 78.3935 103.586C83.3281 100.814 83.3281 100.814 88.1297 98.101C90.7378 102.016 93.1493 104.169 97.488 105.05C103.374 105.752 109.296 103.777 107.968 97.672C106.603 92.686 95.9151 91.473 88.6417 86.141C81.2576 81.298 79.527 69.53 85.5953 62.806C87.6177 60.319 91.0665 58.463 94.6853 57.571L98.4618 57.094C105.713 56.951 110.245 58.821 113.572 62.449C114.498 63.365 115.253 64.353 116.666 66.494C112.804 68.898 112.816 68.875 107.284 72.373C106.102 69.887 104.141 68.327 102.068 67.649C98.8509 66.697 94.7939 67.732 93.9521 71.052C93.6603 72.075 93.7207 73.027 94.1846 74.717C95.4881 77.62 99.8627 78.882 103.787 80.643C115.082 85.117 118.897 89.914 119.835 95.624C120.738 100.54 119.617 103.729 119.446 104.205Z" fill="#B8B8B8"/>
</g>
<defs>
<clipPath id="clip0_1607_408">
<rect width="128" height="128" fill="white"/>
</clipPath>
</defs>
</svg>
