<svg width="112" height="128" viewBox="0 0 112 128" fill="none" xmlns="http://www.w3.org/2000/svg">
<g clip-path="url(#clip0_1620_11547)">
<path d="M101.763 79.2986V26.6148C101.763 15.1929 80.8672 5.54126 56.1261 5.54126C31.385 5.54126 10.4888 15.1929 10.4888 26.6148V79.2986C10.4888 90.7204 31.385 100.372 56.1261 100.372C80.8672 100.372 101.763 90.7204 101.763 79.2986ZM56.1261 16.078C77.182 16.078 89.9605 24.0175 90.3541 26.5832C89.9605 29.2121 77.182 37.1515 56.1261 37.1515C35.0702 37.1515 22.2917 29.2121 21.8981 26.6464C22.2917 24.0175 35.0702 16.078 56.1261 16.078ZM21.8981 40.3494C30.3353 44.8118 42.646 47.6883 56.1261 47.6883C69.6062 47.6883 81.9169 44.8118 90.3541 40.3494V52.9251C89.9605 55.554 77.182 63.4934 56.1261 63.4934C35.0702 63.4934 22.2917 55.554 21.8981 52.9567V40.3494ZM21.8981 79.2986V66.6913C30.3353 71.1537 42.646 74.0302 56.1261 74.0302C69.6062 74.0302 81.9169 71.1537 90.3541 66.6913V79.267C89.9605 81.8959 77.182 89.8353 56.1261 89.8353C35.0702 89.8353 22.2917 81.8959 21.8981 79.2986Z" fill="#B8B8B8"/>
<g clip-path="url(#clip1_1620_11547)">
<path d="M101.763 102.94V50.2566C101.763 38.8348 80.8672 29.1831 56.1261 29.1831C31.385 29.1831 10.4888 38.8348 10.4888 50.2566V102.94C10.4888 114.362 31.385 124.014 56.1261 124.014C80.8672 124.014 101.763 114.362 101.763 102.94ZM56.1261 39.7199C77.182 39.7199 89.9605 47.6593 90.3541 50.225C89.9605 52.8539 77.182 60.7934 56.1261 60.7934C35.0702 60.7934 22.2917 52.8539 21.8981 50.2882C22.2917 47.6593 35.0702 39.7199 56.1261 39.7199ZM21.8981 63.9913C30.3353 68.4536 42.646 71.3301 56.1261 71.3301C69.6062 71.3301 81.9169 68.4536 90.3541 63.9913V76.5669C89.9605 79.1958 77.182 87.1353 56.1261 87.1353C35.0702 87.1353 22.2917 79.1958 21.8981 76.5985V63.9913ZM21.8981 102.94V90.3332C30.3353 94.7955 42.646 97.672 56.1261 97.672C69.6062 97.672 81.9169 94.7955 90.3541 90.3332V102.909C89.9605 105.538 77.182 113.477 56.1261 113.477C35.0702 113.477 22.2917 105.538 21.8981 102.94Z" fill="#B8B8B8"/>
</g>
</g>
<defs>
<clipPath id="clip0_1620_11547">
<rect width="112" height="128" fill="white"/>
</clipPath>
<clipPath id="clip1_1620_11547">
<rect width="158.933" height="107.375" fill="white" transform="translate(-16 50.2395)"/>
</clipPath>
</defs>
</svg>
