<svg width="128" height="128" viewBox="0 0 128 128" fill="none" xmlns="http://www.w3.org/2000/svg">
<g clip-path="url(#clip0_1607_397)">
<path fill-rule="evenodd" clip-rule="evenodd" d="M90.7671 127.126C91.7857 127.523 92.8751 127.706 93.9675 127.664C95.0599 127.622 96.132 127.356 97.1171 126.882L123.47 114.201C124.827 113.548 125.972 112.524 126.774 111.249C127.575 109.974 128 108.498 128 106.992V21.0089C128 19.5025 127.575 18.0267 126.774 16.7511C125.973 15.4756 124.827 14.4523 123.47 13.7989L97.1171 1.1199C95.628 0.403404 93.953 0.1675 92.3239 0.444836C90.6948 0.722171 89.1923 1.49903 88.0241 2.6679L37.5741 48.6939L15.6001 32.0129C14.6089 31.2603 13.3854 30.8784 12.142 30.9336C10.8987 30.9887 9.71382 31.4774 8.79311 32.3149L1.74511 38.7259C1.19586 39.2255 0.756928 39.8342 0.456388 40.5131C0.155849 41.192 0.000322148 41.9261 -0.000242597 42.6686C-0.000807342 43.411 0.153602 44.1454 0.453109 44.8248C0.752615 45.5041 1.19062 46.1135 1.73911 46.6139L20.7961 63.9999L1.74011 81.3869C1.19192 81.8874 0.754176 82.4967 0.454856 83.176C0.155535 83.8552 0.00122612 84.5894 0.00179081 85.3317C0.0023555 86.074 0.157782 86.808 0.458135 87.4868C0.758489 88.1656 1.19716 88.7743 1.74611 89.2739L8.79411 95.6849C9.71461 96.5227 10.8994 97.0117 12.1428 97.067C13.3863 97.1224 14.6098 96.7406 15.6011 95.9879L37.5751 79.3079L88.0251 125.333C88.8052 126.114 89.7383 126.725 90.7671 127.126ZM96.0191 34.9429L57.7401 63.9999L96.0201 93.0579L96.0191 34.9429Z" fill="#B8B8B8"/>
</g>
<defs>
<clipPath id="clip0_1607_397">
<rect width="128" height="128" fill="white"/>
</clipPath>
</defs>
</svg>
