<svg width="128" height="128" viewBox="0 0 128 128" fill="none" xmlns="http://www.w3.org/2000/svg">
<g clip-path="url(#clip0_1607_343)">
<mask id="mask0_1607_343" style="mask-type:alpha" maskUnits="userSpaceOnUse" x="-1" y="0" width="129" height="128">
<path fill-rule="evenodd" clip-rule="evenodd" d="M90.7671 127.126C91.7857 127.523 92.8751 127.706 93.9675 127.664C95.0599 127.622 96.132 127.356 97.1171 126.882L123.47 114.201C124.827 113.548 125.972 112.524 126.774 111.249C127.575 109.974 128 108.498 128 106.992V21.0089C128 19.5025 127.575 18.0267 126.774 16.7511C125.973 15.4756 124.827 14.4523 123.47 13.7989L97.1171 1.1199C95.628 0.403404 93.953 0.1675 92.3239 0.444836C90.6948 0.722171 89.1923 1.49903 88.0241 2.6679L37.5741 48.6939L15.6001 32.0129C14.6089 31.2603 13.3854 30.8784 12.142 30.9336C10.8987 30.9887 9.71382 31.4774 8.79311 32.3149L1.74511 38.7259C1.19586 39.2255 0.756928 39.8342 0.456388 40.5131C0.155849 41.192 0.000322148 41.9261 -0.000242597 42.6686C-0.000807342 43.411 0.153602 44.1454 0.453109 44.8248C0.752615 45.5041 1.19062 46.1135 1.73911 46.6139L20.7961 63.9999L1.74011 81.3869C1.19192 81.8874 0.754176 82.4967 0.454856 83.176C0.155535 83.8552 0.00122612 84.5894 0.00179081 85.3317C0.0023555 86.074 0.157782 86.808 0.458135 87.4868C0.758489 88.1656 1.19716 88.7743 1.74611 89.2739L8.79411 95.6849C9.71461 96.5227 10.8994 97.0117 12.1428 97.067C13.3863 97.1224 14.6098 96.7406 15.6011 95.9879L37.5751 79.3079L88.0251 125.333C88.8052 126.114 89.7383 126.725 90.7671 127.126ZM96.0191 34.9429L57.7401 63.9999L96.0201 93.0579L96.0191 34.9429Z" fill="white"/>
</mask>
<g mask="url(#mask0_1607_343)">
<path d="M123.471 13.8198L97.0969 1.11984C95.6072 0.40287 93.9315 0.166711 92.3017 0.444049C90.6719 0.721387 89.1686 1.49851 87.9999 2.66784L1.6619 81.3868C1.1133 81.8871 0.67518 82.4963 0.375595 83.1756C0.0760096 83.8549 -0.0784441 84.5892 -0.0778793 85.3317C-0.0773145 86.0741 0.0782563 86.8082 0.378875 87.487C0.679493 88.1659 1.11854 88.7745 1.6679 89.2738L8.7199 95.6848C9.64122 96.5226 10.8266 97.0115 12.0707 97.0668C13.3147 97.1222 14.5388 96.7405 15.5309 95.9878L119.502 17.1128C122.99 14.4668 128 16.9548 128 21.3328V21.0268C128 19.5209 127.575 18.0456 126.774 16.7705C125.972 15.4954 124.828 14.4733 123.471 13.8198Z" fill="#0065A9"/>
<g filter="url(#filter0_d_1607_343)">
<path d="M123.471 114.181L97.0969 126.879C95.6074 127.596 93.9318 127.832 92.302 127.555C90.6722 127.279 89.1688 126.502 87.9999 125.333L1.6619 46.6128C1.1133 46.1125 0.67518 45.5033 0.375595 44.824C0.0760096 44.1447 -0.0784441 43.4104 -0.0778793 42.6679C-0.0773145 41.9255 0.0782563 41.1914 0.378875 40.5126C0.679493 39.8337 1.11854 39.2252 1.6679 38.7258L8.7199 32.3148C9.64122 31.477 10.8266 30.9881 12.0707 30.9328C13.3147 30.8774 14.5388 31.2591 15.5309 32.0118L119.502 110.886C122.99 113.533 128 111.045 128 106.667V106.973C128 108.479 127.575 109.954 126.774 111.229C125.972 112.504 124.828 113.527 123.471 114.181Z" fill="#007ACC"/>
</g>
<g filter="url(#filter1_d_1607_343)">
<path d="M97.098 126.882C95.608 127.598 93.9321 127.834 92.3022 127.557C90.6724 127.279 89.169 126.502 88 125.333C90.952 128.285 96 126.194 96 122.019V5.97978C96 1.80478 90.952 -0.286216 88 2.66678C89.169 1.49759 90.6724 0.720503 92.3022 0.443003C93.9321 0.165504 95.608 0.401301 97.098 1.11778L123.467 13.7998C124.825 14.4527 125.971 15.4759 126.773 16.7514C127.575 18.027 128 19.5031 128 21.0098V106.992C128 108.498 127.575 109.975 126.773 111.25C125.971 112.526 124.825 113.549 123.467 114.202L97.098 126.882Z" fill="#1F9CF0"/>
</g>
<path style="mix-blend-mode:overlay" opacity="0.25" fill-rule="evenodd" clip-rule="evenodd" d="M90.69 127.126C91.7084 127.523 92.7976 127.706 93.8899 127.664C94.9821 127.622 96.054 127.356 97.039 126.882L123.392 114.201C124.749 113.548 125.895 112.524 126.696 111.249C127.497 109.973 127.922 108.497 127.922 106.991V21.0089C127.922 19.5025 127.497 18.0267 126.696 16.7511C125.895 15.4756 124.749 14.4523 123.392 13.7989L97.039 1.1199C95.5499 0.403404 93.8749 0.1675 92.2458 0.444836C90.6167 0.722171 89.1141 1.49903 87.946 2.6679L37.496 48.6939L15.522 32.0139C14.5307 31.2613 13.3073 30.8794 12.0639 30.9346C10.8205 30.9897 9.6357 31.4784 8.71499 32.3159L1.66699 38.7269C1.11788 39.2265 0.679066 39.8353 0.378615 40.5142C0.0781639 41.193 -0.0773146 41.9272 -0.0778793 42.6696C-0.078444 43.412 0.0759175 44.1463 0.375335 44.8257C0.674753 45.505 1.11264 46.1144 1.66099 46.6149L20.718 63.9999L1.66199 81.3859C1.1135 81.8863 0.675493 82.4957 0.375987 83.175C0.0764807 83.8544 -0.0779289 84.5888 -0.0773641 85.3312C-0.0767994 86.0737 0.0787273 86.8078 0.379267 87.4867C0.679806 88.1656 1.11874 88.7743 1.66799 89.2739L8.71599 95.6849C9.63658 96.5225 10.8213 97.0114 12.0647 97.0667C13.3081 97.1221 14.5316 96.7404 15.523 95.9879L37.498 79.3069L87.948 125.333C88.7278 126.114 89.6615 126.725 90.69 127.126ZM95.942 34.9419L57.662 63.9999L95.942 93.0569V34.9419Z" fill="url(#paint0_linear_1607_343)"/>
</g>
</g>
<defs>
<filter id="filter0_d_1607_343" x="-8.41122" y="22.5942" width="144.745" height="113.407" filterUnits="userSpaceOnUse" color-interpolation-filters="sRGB">
<feFlood flood-opacity="0" result="BackgroundImageFix"/>
<feColorMatrix in="SourceAlpha" type="matrix" values="0 0 0 0 0 0 0 0 0 0 0 0 0 0 0 0 0 0 127 0" result="hardAlpha"/>
<feOffset/>
<feGaussianBlur stdDeviation="4.16667"/>
<feColorMatrix type="matrix" values="0 0 0 0 0 0 0 0 0 0 0 0 0 0 0 0 0 0 0.25 0"/>
<feBlend mode="overlay" in2="BackgroundImageFix" result="effect1_dropShadow_1607_343"/>
<feBlend mode="normal" in="SourceGraphic" in2="effect1_dropShadow_1607_343" result="shape"/>
</filter>
<filter id="filter1_d_1607_343" x="79.6667" y="-8.00351" width="56.6667" height="144.007" filterUnits="userSpaceOnUse" color-interpolation-filters="sRGB">
<feFlood flood-opacity="0" result="BackgroundImageFix"/>
<feColorMatrix in="SourceAlpha" type="matrix" values="0 0 0 0 0 0 0 0 0 0 0 0 0 0 0 0 0 0 127 0" result="hardAlpha"/>
<feOffset/>
<feGaussianBlur stdDeviation="4.16667"/>
<feColorMatrix type="matrix" values="0 0 0 0 0 0 0 0 0 0 0 0 0 0 0 0 0 0 0.25 0"/>
<feBlend mode="overlay" in2="BackgroundImageFix" result="effect1_dropShadow_1607_343"/>
<feBlend mode="normal" in="SourceGraphic" in2="effect1_dropShadow_1607_343" result="shape"/>
</filter>
<linearGradient id="paint0_linear_1607_343" x1="63.9222" y1="0.3298" x2="63.9222" y2="127.67" gradientUnits="userSpaceOnUse">
<stop stop-color="white"/>
<stop offset="1" stop-color="white" stop-opacity="0"/>
</linearGradient>
<clipPath id="clip0_1607_343">
<rect width="128" height="128" fill="white"/>
</clipPath>
</defs>
</svg>
